<svg xmlns="http://www.w3.org/2000/svg" viewBox="0 0 1200 1200" role="img" aria-label="Concert lights over a crowd">
  <defs>
    <linearGradient id="bg" x1="0" y1="0" x2="0" y2="1">
      <stop offset="0" stop-color="#111827"/>
      <stop offset=".45" stop-color="#291139"/>
      <stop offset="1" stop-color="#07090f"/>
    </linearGradient>
    <radialGradient id="lightA" cx=".45" cy=".25" r=".4">
      <stop offset="0" stop-color="#ff4770" stop-opacity=".92"/>
      <stop offset="1" stop-color="#ff4770" stop-opacity="0"/>
    </radialGradient>
    <radialGradient id="lightB" cx=".65" cy=".3" r=".45">
      <stop offset="0" stop-color="#23b7a7" stop-opacity=".82"/>
      <stop offset="1" stop-color="#23b7a7" stop-opacity="0"/>
    </radialGradient>
  </defs>
  <rect width="1200" height="1200" fill="url(#bg)"/>
  <rect width="1200" height="1200" fill="url(#lightA)"/>
  <rect width="1200" height="1200" fill="url(#lightB)"/>
  <g stroke-width="28" stroke-linecap="round" opacity=".8">
    <path d="M180 48 L455 706" stroke="#ff304f"/>
    <path d="M1008 72 L688 690" stroke="#23b7a7"/>
    <path d="M596 0 L596 650" stroke="#f2b544"/>
  </g>
  <g transform="translate(0 730)" fill="#07090f">
    <path d="M0 175 C80 92 162 140 232 98 C314 49 390 115 462 84 C550 44 619 121 704 88 C817 43 915 137 1006 91 C1082 52 1138 78 1200 38 L1200 470 L0 470 Z"/>
    <circle cx="86" cy="150" r="47"/>
    <circle cx="205" cy="112" r="55"/>
    <circle cx="326" cy="118" r="45"/>
    <circle cx="455" cy="88" r="50"/>
    <circle cx="603" cy="112" r="58"/>
    <circle cx="748" cy="90" r="52"/>
    <circle cx="910" cy="118" r="62"/>
    <circle cx="1072" cy="82" r="54"/>
  </g>
  <g stroke="#f8f5ee" stroke-width="18" stroke-linecap="round" opacity=".45">
    <path d="M245 810 L210 610"/>
    <path d="M838 798 L892 592"/>
    <path d="M1012 835 L1058 664"/>
  </g>
</svg>
